<svg width="53" height="44" viewBox="0 0 53 44" fill="none" xmlns="http://www.w3.org/2000/svg">
<path d="M0.559566 20.8745L0.55859 20.8901C0.502457 21.7961 -0.149437 29.2661 4.88183 35.4507L4.88086 35.4517C8.74821 40.1808 14.9336 42.9203 23.252 43.4849C23.4701 43.4829 23.6788 43.4095 23.8105 43.3208C23.919 43.1995 23.9775 43.0534 23.9775 42.8511L23.9775 34.3491C23.9775 33.9973 23.6922 33.7154 23.3555 33.7153C23.1233 33.7153 20.7917 33.6692 18.3232 32.4673C15.8292 31.2529 13.2077 28.8602 12.4766 24.2241L12.3848 23.646L23.2988 23.646C23.6355 23.646 23.9216 23.3649 23.9219 23.0132L23.9219 1.1333C23.9216 0.78156 23.6355 0.500484 23.2988 0.500484L1.18163 0.500488C0.84507 0.500614 0.559785 0.781643 0.559563 1.1333L0.559566 20.8745Z" fill="white" stroke="white"/>
<path d="M28.5723 20.8906L28.5684 20.9209C28.4615 21.7838 27.8615 29.2632 32.8955 35.4512L32.8945 35.4521C36.766 40.1864 42.9041 42.9256 51.29 43.4863L51.3232 43.4893L51.3555 43.4951C51.45 43.5142 51.6212 43.4737 51.7432 43.3506C51.8684 43.2241 51.9355 43.0695 51.9355 42.8516L51.9355 34.3496C51.9355 33.9977 51.6492 33.7158 51.3125 33.7158C51.0843 33.7158 48.7377 33.6854 46.2607 32.4902C43.7575 31.2824 41.1346 28.8878 40.4326 24.2217L40.3467 23.6475L51.3125 23.6475C51.6492 23.6474 51.9354 23.3655 51.9355 23.0137L51.9355 1.13476C51.9355 0.782845 51.6493 0.500993 51.3125 0.500972L29.1953 0.500976C28.8585 0.500976 28.5723 0.782837 28.5723 1.13477L28.5723 20.8906Z" fill="white" stroke="white"/>
</svg>
